<?xml version="1.0" standalone="no"?><!DOCTYPE svg PUBLIC "-//W3C//DTD SVG 1.1//EN" "http://www.w3.org/Graphics/SVG/1.1/DTD/svg11.dtd"><svg t="1546752797962" class="icon" style="" viewBox="0 0 1024 1024" version="1.1" xmlns="http://www.w3.org/2000/svg" p-id="992" xmlns:xlink="http://www.w3.org/1999/xlink" width="200" height="200"><defs><style type="text/css"></style></defs><path d="M464 800h96a48 48 0 0 0 48-48V352a48 48 0 0 0-48-48h-96a48 48 0 0 0-48 48v400a48 48 0 0 0 48 48z m272 0h96a48 48 0 0 0 48-48V576a48 48 0 0 0-48-48h-96a48 48 0 0 0-48 48v176a48 48 0 0 0 48 48z m248 48h-944A40 40 0 0 0 0 888v16A40 40 0 0 0 40 944h944a40 40 0 0 0 40-40v-16a40 40 0 0 0-40-40zM192 800h96a48 48 0 0 0 48-48V128a48 48 0 0 0-48-48h-96a48 48 0 0 0-48 48v624a48 48 0 0 0 48 48z" fill="#673131" p-id="993"></path></svg>