<?xml version="1.0" standalone="no"?><!DOCTYPE svg PUBLIC "-//W3C//DTD SVG 1.1//EN" "http://www.w3.org/Graphics/SVG/1.1/DTD/svg11.dtd"><svg class="icon" width="200px" height="200.00px" viewBox="0 0 1024 1024" version="1.1" xmlns="http://www.w3.org/2000/svg"><path d="M623.6 635.9c-30.5-9.4-60.8-5.8-87.4 10.3-4 2.4-7.6 5-10.9 7.5-3.2-2.6-6.8-5.1-10.8-7.6-26.5-16.5-56.7-20.4-87.3-11.3-31.2 9.3-55.2 30.5-67.5 59.7-14.1 33.4-11.4 74.4 7.2 109.8 12.7 24.1 40.5 56.8 82.6 97 30.5 29.1 57.2 51.4 58.3 52.4 4.6 3.9 10.3 5.8 16 5.8 5.6 0 11.2-1.9 15.8-5.6 1.1-0.9 28.1-22.9 58.9-51.7 42.5-39.8 70.7-72.1 83.6-96.1 19-35.2 22.1-76.2 8.4-109.7-12-29.4-35.7-50.8-66.9-60.5z m14.5 146.4c-18 33.3-78.6 89-114.2 119.4-35.2-30.8-95.2-87.2-112.8-120.7-11.7-22.3-13.7-47.3-5.4-67.1 6.5-15.4 18.8-26.2 35.7-31.2 6.1-1.8 12.1-2.7 17.8-2.7 9.6 0 18.8 2.6 27.6 7.8 10.8 6.3 17.2 14.5 18 15.5 4.6 6.7 12 10.6 20.1 10.7 8.1 0.1 15.7-3.9 20.5-10.6 0.2-0.3 23.6-32 63.5-19.7 16.8 5.2 29 16.1 35.3 31.6 8.1 19.8 5.8 44.9-6.1 67zM524.8 504.4c57.7 0 112-22.5 152.8-63.3 40.8-40.8 63.3-95.1 63.3-152.8s-22.5-112-63.3-152.8c-40.8-40.8-95.1-63.3-152.8-63.3s-112 22.5-152.8 63.3c-40.8 40.8-63.3 95.1-63.3 152.8s22.5 112 63.3 152.8c40.8 40.8 95.1 63.3 152.8 63.3z m0-382.2c91.6 0 166.1 74.5 166.1 166.1s-74.5 166.1-166.1 166.1-166.1-74.5-166.1-166.1 74.5-166.1 166.1-166.1z" fill="#2c2c2c" /><path d="M904.6 746.1L769.1 526.3c-17.7-28.7-54.7-39-84.3-23.5-28.7 15.1-78.1 34.1-150.6 39-75.1 5.1-137.4-21.2-176.4-44.1-14.9-8.7-32.3-11-49-6.5-16.9 4.6-30.9 15.6-39.5 31l-127 228.7c-21.5 38.7-20.9 84.6 1.5 122.8 22.5 38.2 62.3 61 106.6 61h24.5c13.8 0 25-11.2 25-25s-11.2-25-25-25h-24.5c-26.4 0-50.1-13.6-63.5-36.3-13.4-22.7-13.7-50.1-0.9-73.2l127-228.7c1.9-3.5 5.1-6 8.9-7 2.1-0.6 6.2-1.2 10.5 1.4 45.1 26.5 117.3 56.8 205.1 50.9 81.3-5.5 137.6-27.3 170.5-44.6 6.4-3.4 14.5-1 18.5 5.4L862 772.3c14.2 23.1 14.8 50.9 1.6 74.6-13.2 23.6-37.3 37.8-64.3 37.8h-0.2c-13.8 0-25 11.2-25 25s11.2 25 25 25h0.2c45.5 0 85.8-23.7 108-63.4 22.1-39.7 21.1-86.5-2.7-125.2z" fill="#2c2c2c" /></svg>