<?xml version="1.0" standalone="no"?><!DOCTYPE svg PUBLIC "-//W3C//DTD SVG 1.1//EN" "http://www.w3.org/Graphics/SVG/1.1/DTD/svg11.dtd"><svg t="1546754993123" class="icon" style="" viewBox="0 0 1024 1024" version="1.1" xmlns="http://www.w3.org/2000/svg" p-id="6798" xmlns:xlink="http://www.w3.org/1999/xlink" width="200" height="200"><defs><style type="text/css"></style></defs><path d="M501.184 498.048l-180.48 180.48a42.688 42.688 0 1 1-60.352-60.288l211.2-211.2c16.64-16.64 43.648-16.64 60.352 0l108.224 108.224 180.48-180.48a42.688 42.688 0 1 1 60.352 60.352l-211.2 211.2a42.688 42.688 0 0 1-60.288 0L501.12 498.048zM213.312 170.688v640h640a42.688 42.688 0 1 1 0 85.312H170.688A42.688 42.688 0 0 1 128 853.312V170.688a42.688 42.688 0 1 1 85.312 0z" p-id="6799" fill="#673131"></path></svg>