<?xml version="1.0" standalone="no"?><!DOCTYPE svg PUBLIC "-//W3C//DTD SVG 1.1//EN" "http://www.w3.org/Graphics/SVG/1.1/DTD/svg11.dtd"><svg t="1546757730991" class="icon" style="" viewBox="0 0 1028 1024" version="1.1" xmlns="http://www.w3.org/2000/svg" p-id="1248" xmlns:xlink="http://www.w3.org/1999/xlink" width="200.78125" height="200"><defs><style type="text/css"></style></defs><path d="M85.333333 979.626667c0 23.893333-20.48 40.96-40.96 40.96l0 0c-23.893333 0-40.96-20.48-40.96-40.96L3.413333 44.373333c0-23.893333 20.48-40.96 40.96-40.96l0 0c23.893333 0 40.96 20.48 40.96 40.96L85.333333 979.626667 85.333333 979.626667zM85.333333 979.626667" p-id="1249" fill="#673131"></path><path d="M40.96 1020.586667c-23.893333 0-40.96-20.48-40.96-40.96l0 0c0-23.893333 20.48-40.96 40.96-40.96l945.493333 0c23.893333 0 40.96 20.48 40.96 40.96l0 0c0 23.893333-20.48 40.96-40.96 40.96L40.96 1020.586667 40.96 1020.586667zM40.96 1020.586667" p-id="1250" fill="#673131"></path><path d="M174.08 157.013333c0 17.066667 6.826667 34.133333 17.066667 44.373333C204.8 215.04 221.866667 221.866667 238.933333 221.866667c17.066667 0 34.133333-6.826667 44.373333-17.066667 10.24-10.24 17.066667-27.306667 17.066667-44.373333 0-17.066667-6.826667-34.133333-17.066667-44.373333C273.066667 98.986667 256 92.16 238.933333 92.16c-17.066667 0-34.133333 6.826667-44.373333 17.066667C180.906667 122.88 174.08 139.946667 174.08 157.013333L174.08 157.013333zM174.08 157.013333" p-id="1251" fill="#673131"></path><path d="M508.586667 467.626667c0 17.066667 6.826667 34.133333 17.066667 44.373333 10.24 10.24 27.306667 17.066667 44.373333 17.066667 17.066667 0 34.133333-6.826667 44.373333-17.066667 10.24-10.24 17.066667-27.306667 17.066667-44.373333 0-17.066667-6.826667-34.133333-17.066667-44.373333-10.24-10.24-27.306667-17.066667-44.373333-17.066667-17.066667 0-34.133333 6.826667-44.373333 17.066667C515.413333 436.906667 508.586667 450.56 508.586667 467.626667L508.586667 467.626667zM508.586667 467.626667" p-id="1252" fill="#673131"></path><path d="M286.72 348.16c0 17.066667 6.826667 34.133333 17.066667 44.373333 10.24 10.24 27.306667 17.066667 44.373333 17.066667 17.066667 0 34.133333-6.826667 44.373333-17.066667 10.24-10.24 17.066667-27.306667 17.066667-44.373333 0-17.066667-6.826667-34.133333-17.066667-44.373333-10.24-10.24-27.306667-17.066667-44.373333-17.066667-17.066667 0-34.133333 6.826667-44.373333 17.066667C293.546667 314.026667 286.72 331.093333 286.72 348.16L286.72 348.16zM286.72 348.16" p-id="1253" fill="#673131"></path><path d="M484.693333 157.013333c0 17.066667 6.826667 34.133333 17.066667 44.373333 10.24 10.24 27.306667 17.066667 44.373333 17.066667 17.066667 0 34.133333-6.826667 44.373333-17.066667 10.24-10.24 17.066667-27.306667 17.066667-44.373333 0-17.066667-6.826667-34.133333-17.066667-44.373333C580.266667 98.986667 563.2 92.16 546.133333 92.16c-17.066667 0-34.133333 6.826667-44.373333 17.066667C491.52 122.88 484.693333 139.946667 484.693333 157.013333L484.693333 157.013333zM484.693333 157.013333" p-id="1254" fill="#673131"></path><path d="M740.693333 221.866667c0 17.066667 6.826667 34.133333 17.066667 44.373333 10.24 10.24 27.306667 17.066667 44.373333 17.066667 17.066667 0 34.133333-6.826667 44.373333-17.066667 10.24-10.24 17.066667-27.306667 17.066667-44.373333 0-17.066667-6.826667-34.133333-17.066667-44.373333-10.24-10.24-27.306667-17.066667-44.373333-17.066667-17.066667 0-34.133333 6.826667-44.373333 17.066667C747.52 187.733333 740.693333 204.8 740.693333 221.866667L740.693333 221.866667zM740.693333 221.866667" p-id="1255" fill="#673131"></path><path d="M819.2 785.066667c0 17.066667 6.826667 34.133333 17.066667 44.373333 10.24 10.24 27.306667 17.066667 44.373333 17.066667 17.066667 0 34.133333-6.826667 44.373333-17.066667 10.24-10.24 17.066667-27.306667 17.066667-44.373333 0-17.066667-6.826667-34.133333-17.066667-44.373333-10.24-10.24-27.306667-17.066667-44.373333-17.066667-17.066667 0-34.133333 6.826667-44.373333 17.066667C826.026667 750.933333 819.2 768 819.2 785.066667L819.2 785.066667zM819.2 785.066667" p-id="1256" fill="#673131"></path><path d="M174.08 532.48c0 17.066667 6.826667 34.133333 17.066667 44.373333C204.8 590.506667 221.866667 597.333333 238.933333 597.333333c17.066667 0 34.133333-6.826667 44.373333-17.066667 10.24-10.24 17.066667-27.306667 17.066667-44.373333 0-17.066667-6.826667-34.133333-17.066667-44.373333C273.066667 474.453333 256 467.626667 238.933333 467.626667c-17.066667 0-34.133333 6.826667-44.373333 17.066667C180.906667 498.346667 174.08 515.413333 174.08 532.48L174.08 532.48zM174.08 532.48" p-id="1257" fill="#673131"></path><path d="M351.573333 709.973333c0 17.066667 6.826667 34.133333 17.066667 44.373333 10.24 10.24 27.306667 17.066667 44.373333 17.066667 17.066667 0 34.133333-6.826667 44.373333-17.066667 10.24-10.24 17.066667-27.306667 17.066667-44.373333 0-17.066667-6.826667-34.133333-17.066667-44.373333-10.24-10.24-27.306667-17.066667-44.373333-17.066667-17.066667 0-34.133333 6.826667-44.373333 17.066667C358.4 679.253333 351.573333 696.32 351.573333 709.973333L351.573333 709.973333zM351.573333 709.973333" p-id="1258" fill="#673131"></path></svg>