<?xml version="1.0" standalone="no"?><!DOCTYPE svg PUBLIC "-//W3C//DTD SVG 1.1//EN" "http://www.w3.org/Graphics/SVG/1.1/DTD/svg11.dtd"><svg t="1546757813811" class="icon" style="" viewBox="0 0 1024 1024" version="1.1" xmlns="http://www.w3.org/2000/svg" p-id="1259" xmlns:xlink="http://www.w3.org/1999/xlink" width="200" height="200"><defs><style type="text/css"></style></defs><path d="M388.690013 566.225029H110.535933C72.185581 566.225029 40.999975 597.410635 40.999975 635.766112v278.15408c0 38.355477 31.185606 69.535958 69.535958 69.535958h278.15408c38.355477 0 69.535958-31.185606 69.535957-69.535958v-278.15408c0.005125-38.355477-31.180481-69.541083-69.535957-69.541083zM389.776512 41.543225H111.627557c-38.355477 0-69.535958 31.185606-69.535958 69.535957v278.15408c0 38.355477 31.185606 69.535958 69.535958 69.535958h278.15408c38.355477 0 69.535958-31.185606 69.535958-69.535958V111.079182c0-38.350352-31.185606-69.535958-69.541083-69.535957zM735.626676 51.352469l-159.044028 159.044028c-21.929862 21.929862-21.929862 57.58959 0 79.519451l159.044028 159.044028c21.929862 21.929862 57.58959 21.929862 79.519451 0l159.044028-159.044028c21.929862-21.929862 21.929862-57.58959 0-79.519451L815.146127 51.352469c-21.929862-21.924737-57.58959-21.924737-79.519451 0zM914.463442 566.225029h-278.15408c-38.355477 0-69.535958 31.185606-69.535958 69.535958v278.15408c0 38.355477 31.185606 69.535958 69.535958 69.535958h278.15408c38.355477 0 69.535958-31.185606 69.535957-69.535958v-278.15408c0-38.350352-31.185606-69.535958-69.535957-69.535958z" fill="#673131" p-id="1260"></path></svg>